HIERARCHY
ROOT root
{
	OFFSET 0.000000 0.000000 0.000000
	CHANNELS 6 Xposition Yposition Zposition Zrotation Yrotation Xrotation
	JOINT lhip
	{
		OFFSET 0.058581 -0.082280 -0.017664
		CHANNELS 3 Zrotation Yrotation Xrotation
		JOINT lknee
		{
			OFFSET 0.043451 -0.386469 0.008037
			CHANNELS 3 Zrotation Yrotation Xrotation
			JOINT lankle
			{
				OFFSET -0.014790 -0.426874 -0.037428
				CHANNELS 3 Zrotation Yrotation Xrotation
				JOINT ltoe
				{
					OFFSET 0.041054 -0.060286 0.122042
					CHANNELS 3 Zrotation Yrotation Xrotation
					End Site
					{
						OFFSET 0.000000 0.000000 0.000000
					}
				}
			}
		}
	}
	JOINT rhip
	{
		OFFSET -0.060310 -0.090513 -0.013543
		CHANNELS 3 Zrotation Yrotation Xrotation
		JOINT rknee
		{
			OFFSET -0.043257 -0.383688 -0.004843
			CHANNELS 3 Zrotation Yrotation Xrotation
			JOINT rankle
			{
				OFFSET 0.019056 -0.420046 -0.034562
				CHANNELS 3 Zrotation Yrotation Xrotation
				JOINT rtoe
				{
					OFFSET -0.034840 -0.062106 0.130323
					CHANNELS 3 Zrotation Yrotation Xrotation
					End Site
					{
						OFFSET 0.000000 0.000000 0.000000
					}
				}
			}
		}
	}
	JOINT lowerback
	{
		OFFSET 0.004439 0.124404 -0.038385
		CHANNELS 3 Zrotation Yrotation Xrotation
		JOINT upperback
		{
			OFFSET 0.004488 0.137956 0.026820
			CHANNELS 3 Zrotation Yrotation Xrotation
			JOINT chest
			{
				OFFSET -0.002265 0.056032 0.002855
				CHANNELS 3 Zrotation Yrotation Xrotation
				JOINT lowerneck
				{
					OFFSET -0.013390 0.211636 -0.033468
					CHANNELS 3 Zrotation Yrotation Xrotation
					JOINT upperneck
					{
						OFFSET 0.010113 0.088937 0.050410
						CHANNELS 3 Zrotation Yrotation Xrotation
						End Site
						{
							OFFSET 0.000000 0.000000 0.000000
						}
					}
				}
				JOINT lclavicle
				{
					OFFSET 0.071702 0.114000 -0.018898
					CHANNELS 3 Zrotation Yrotation Xrotation
					JOINT lshoulder
					{
						OFFSET 0.122921 0.045205 -0.019046
						CHANNELS 3 Zrotation Yrotation Xrotation
						JOINT lelbow
						{
							OFFSET 0.255332 -0.015649 -0.022946
							CHANNELS 3 Zrotation Yrotation Xrotation
							JOINT lwrist
							{
								OFFSET 0.265709 0.012698 -0.007375
								CHANNELS 3 Zrotation Yrotation Xrotation
								End Site
								{
									OFFSET 0.000000 0.000000 0.000000
								}
							}
						}
					}
				}
				JOINT rclavicle
				{
					OFFSET -0.082954 0.112472 -0.023707
					CHANNELS 3 Zrotation Yrotation Xrotation
					JOINT rshoulder
					{
						OFFSET -0.113228 0.046853 -0.008472
						CHANNELS 3 Zrotation Yrotation Xrotation
						JOINT relbow
						{
							OFFSET -0.260127 -0.014369 -0.031269
							CHANNELS 3 Zrotation Yrotation Xrotation
							JOINT rwrist
							{
								OFFSET -0.269108 0.006794 -0.006027
								CHANNELS 3 Zrotation Yrotation Xrotation
								End Site
								{
									OFFSET 0.000000 0.000000 0.000000
								}
							}
						}
					}
				}
			}
		}
	}
}
MOTION
Frames: 14
Frame Time: 0.033333
-0.111725 -1.977559 0.964576 172.486875 -1.203765 86.732419 3.929871 -4.205233 -9.096199 -5.250811 -10.236716 12.722814 -2.116016 4.436292 -12.003169 0.000000 -0.000000 0.000000 0.936123 -0.063498 5.614105 -1.167611 5.797889 14.835316 -1.010436 -4.971107 -28.224875 0.000000 -0.000000 0.000000 -0.270424 3.073189 17.851140 0.998423 -2.280799 3.791788 1.018356 -1.961668 1.561792 -3.419607 6.045248 -11.411647 0.745418 -0.797545 -4.254705 -25.777534 5.931763 4.266440 -51.718555 5.724085 10.491451 7.695932 -52.328826 8.034829 4.615564 -13.784130 -20.624923 22.934393 -0.586072 3.340035 52.702957 -5.260628 12.550682 -15.688831 46.667358 0.152588 4.022678 8.289042 -9.794626 
-0.111575 -1.978173 0.964834 172.338154 -1.218738 86.771378 3.960423 -4.209869 -9.065607 -5.242240 -10.164703 12.540175 -2.153262 4.550769 -11.877284 0.000000 -0.000000 0.000000 0.917438 0.036499 5.260875 -1.182170 5.671294 15.328599 -1.139039 -4.714669 -28.136213 0.000000 -0.000000 0.000000 -0.271945 3.032860 18.041313 0.962598 -2.239270 3.579665 1.070334 -1.967817 1.491530 -3.361332 5.907201 -11.216179 0.590875 -0.709630 -4.599505 -25.675514 5.857271 4.380738 -51.673273 5.835588 10.502344 7.395718 -52.523897 8.362213 4.002884 -13.821036 -20.770569 22.782788 -0.596989 3.440719 52.796980 -5.303422 12.497201 -15.515169 46.741191 0.348990 4.197049 8.267325 -9.736369 
-0.111384 -1.978625 0.964760 172.301770 -1.206388 86.703601 3.974830 -4.236595 -9.085147 -5.251716 -10.153420 12.628331 -2.060493 4.632048 -11.876786 0.000000 -0.000000 0.000000 1.004262 0.168432 5.003727 -1.189841 5.662140 15.920601 -1.102392 -4.777903 -28.172173 0.000000 -0.000000 0.000000 -0.293637 2.975092 18.240023 1.008176 -2.242720 3.513552 1.162366 -2.000323 1.404306 -3.310168 5.676497 -11.042330 0.300677 -0.477483 -4.939998 -25.653357 5.772265 4.588909 -51.706266 5.885802 10.439612 7.233086 -52.752738 8.549298 3.997340 -13.863380 -20.795387 22.549733 -0.577683 3.604814 52.937707 -5.322188 12.429572 -15.357826 46.874232 0.502467 4.141418 8.278936 -9.861354 
-0.111126 -1.979217 0.964139 172.268080 -1.217708 86.562357 3.894835 -4.110887 -9.397377 -5.249480 -10.170781 13.403472 -1.962645 4.554646 -12.181364 0.000000 -0.000000 0.000000 1.098365 0.274847 4.779159 -1.242442 5.648937 16.620879 -1.196446 -4.876981 -28.374778 0.000000 -0.000000 0.000000 -0.321537 2.889768 18.590887 1.015049 -2.279207 3.381930 1.292574 -2.021045 1.291572 -3.295526 5.366330 -10.836327 -0.101828 0.024214 -5.534469 -25.674557 5.686810 4.845524 -51.846975 5.986815 10.189053 7.254874 -52.975015 8.572611 4.529211 -13.866062 -20.679505 22.266216 -0.507231 3.866417 53.194690 -5.361520 12.260017 -15.177882 47.024268 0.696549 3.959373 8.319727 -9.981197 
-0.110957 -1.979489 0.963626 172.241452 -1.245515 86.497395 3.828931 -3.983626 -9.702527 -5.266260 -10.152994 14.058742 -1.961370 4.425676 -12.420785 0.000000 -0.000000 0.000000 1.123980 0.274500 4.678860 -1.291991 5.656888 16.948348 -1.282224 -4.920341 -28.530581 0.000000 -0.000000 0.000000 -0.342905 2.879883 18.701747 1.006919 -2.307999 3.437622 1.349587 -2.032157 1.207674 -3.318273 5.276292 -10.929406 -0.331818 0.279459 -5.997767 -25.726139 5.643779 4.923216 -51.942996 6.024732 10.019755 7.419551 -53.010953 8.467181 4.853460 -13.850801 -20.582781 22.222232 -0.476820 3.993003 53.315148 -5.366125 12.164198 -15.177879 47.044625 0.753787 3.881517 8.309847 -9.993998 
-0.110862 -1.979582 0.963101 172.229537 -1.291608 86.465019 3.800299 -3.900348 -9.935725 -5.344546 -10.112303 14.490903 -1.936605 4.314617 -12.565052 0.000000 -0.000000 0.000000 1.089603 0.202514 4.621473 -1.320613 5.672573 17.145626 -1.362424 -4.932377 -28.642225 0.000000 -0.000000 0.000000 -0.309936 2.885414 18.731187 0.992682 -2.336911 3.538109 1.379814 -2.039496 1.057635 -3.445230 5.118468 -11.382834 -0.612265 0.371888 -6.546210 -25.828815 5.591431 5.005077 -52.090412 6.019315 9.792796 7.701789 -52.825211 8.312444 5.072965 -13.831538 -20.441873 22.250924 -0.457027 4.160387 53.476781 -5.423956 12.006548 -15.307098 46.905472 0.750180 3.839551 8.301637 -9.908212 
-0.110953 -1.979464 0.963095 172.262461 -1.292898 86.514899 3.827444 -3.876045 -10.093610 -5.410903 -10.077459 14.631435 -1.916003 4.235100 -12.581340 0.000000 -0.000000 0.000000 1.046152 0.115325 4.612704 -1.290385 5.710396 17.103127 -1.371231 -4.904846 -28.579250 0.000000 -0.000000 0.000000 -0.165866 2.857691 18.678367 0.981947 -2.344107 3.474587 1.374795 -2.035094 0.902331 -3.701953 4.758937 -11.981173 -0.867585 0.187615 -6.988387 -25.951851 5.582361 5.112360 -52.245364 6.001275 9.584745 7.943391 -52.451307 8.252243 4.897376 -13.840201 -20.321930 22.318933 -0.454277 4.336297 53.577064 -5.547664 11.842194 -15.349357 46.610981 0.862562 3.974518 8.322884 -9.768048 
-0.111145 -1.979102 0.963495 172.312546 -1.266581 86.568017 3.845493 -3.879267 -10.079039 -5.393323 -10.062651 14.510217 -1.950161 4.182208 -12.501634 0.000000 -0.000000 0.000000 1.030647 0.068685 4.700043 -1.273967 5.762626 16.878150 -1.362256 -4.873182 -28.395806 0.000000 -0.000000 0.000000 0.004161 2.807089 18.530955 0.981228 -2.327018 3.359922 1.362368 -2.038687 0.779589 -4.017532 4.295015 -12.550293 -1.153124 -0.163807 -7.319725 -26.077753 5.605125 5.252434 -52.305435 6.035742 9.456554 8.054995 -52.161271 8.260358 4.237495 -13.928810 -20.337486 22.425488 -0.421768 4.449971 53.526133 -5.683666 11.793492 -15.191713 46.313475 1.175089 4.360119 8.329904 -9.584039 
-0.111302 -1.978560 0.963995 172.346693 -1.255795 86.538891 3.829905 -3.852644 -9.873987 -5.343105 -10.089514 14.237090 -1.999693 4.146491 -12.396726 0.000000 -0.000000 0.000000 1.019355 0.052262 4.975674 -1.288480 5.853422 16.492368 -1.360153 -4.888404 -28.169528 0.000000 -0.000000 0.000000 0.136741 2.766566 18.280799 1.006189 -2.313667 3.398647 1.329469 -2.053055 0.659741 -4.314588 3.950885 -13.102229 -1.594259 -0.558096 -7.249951 -26.219717 5.587588 5.453164 -52.205649 6.101924 9.418431 7.955888 -52.064017 8.430486 3.276890 -14.093373 -20.434868 22.606673 -0.350779 4.468233 53.326926 -5.754425 11.855972 -14.981213 46.099535 1.547393 4.944841 8.326906 -9.337313 
-0.111442 -1.977875 0.964461 172.361280 -1.295541 86.450614 3.750007 -3.812304 -9.561891 -5.272692 -10.143131 13.902700 -2.042316 4.116653 -12.299458 0.000000 -0.000000 0.000000 0.981302 0.031628 5.462907 -1.370262 6.017647 15.844956 -1.367727 -4.961064 -27.930764 0.000000 -0.000000 0.000000 0.252184 2.690123 17.997526 1.030364 -2.334342 3.332149 1.230348 -2.077394 0.582134 -4.647748 3.837173 -13.549587 -2.218014 -0.913014 -6.472406 -26.444629 5.600046 5.642591 -51.820718 6.224371 9.505932 7.446992 -52.044423 8.957825 2.081354 -14.423277 -20.449601 22.973542 -0.264577 4.375231 52.935938 -5.720996 12.062131 -14.791039 45.931152 1.830469 5.627486 8.360729 -9.048547 
-0.111477 -1.977562 0.964564 172.321112 -1.351561 86.338823 3.672109 -3.773156 -9.364239 -5.251080 -10.184234 13.800590 -2.046799 4.119593 -12.298812 0.000000 -0.000000 0.000000 0.914564 -0.036005 5.873227 -1.427671 6.211516 15.347397 -1.315936 -5.018993 -27.785627 0.000000 -0.000000 0.000000 0.334354 2.652948 17.808909 1.056058 -2.344267 3.321408 1.132934 -2.204456 0.658125 -4.951902 4.033104 -14.021197 -2.632411 -0.992384 -5.520914 -26.708088 5.728318 5.456712 -51.410717 6.256588 9.594145 6.828985 -51.999741 9.601788 1.420985 -14.663537 -20.258700 23.217651 -0.213724 4.180247 52.693836 -5.456858 12.248473 -14.800157 45.874150 1.741105 5.894963 8.422950 -8.845336 
-0.111558 -1.977615 0.964556 172.193829 -1.385703 86.193923 3.618733 -3.713312 -9.194377 -5.237520 -10.188045 13.813459 -2.036587 4.152469 -12.340910 0.000000 -0.000000 0.000000 0.853890 -0.080754 6.154197 -1.459194 6.373311 15.104368 -1.289710 -4.979575 -27.716403 0.000000 -0.000000 0.000000 0.391467 2.679559 17.692450 1.044423 -2.301194 3.324964 1.034821 -2.285224 0.748037 -5.101622 4.477443 -14.319475 -2.820357 -0.842946 -4.702578 -26.891479 5.780586 5.224618 -51.198310 6.245721 9.648936 6.578502 -51.963811 9.968116 1.194766 -14.765767 -19.924457 23.427181 -0.197776 3.995587 52.606517 -5.183328 12.353178 -15.034205 45.991591 1.384198 5.778347 8.460746 -8.882154 
-0.111742 -1.978093 0.964487 171.999439 -1.393722 86.078429 3.592913 -3.662273 -9.095153 -5.208444 -10.132853 13.872456 -2.021501 4.212035 -12.382558 0.000000 -0.000000 0.000000 0.828248 -0.042239 6.247212 -1.480615 6.479021 15.086979 -1.305001 -4.899868 -27.716995 0.000000 -0.000000 0.000000 0.445291 2.685013 17.680822 0.952195 -2.209044 3.229280 0.912887 -2.246041 0.834572 -5.047473 4.911477 -14.355321 -2.830895 -0.573975 -4.252280 -27.006738 5.803315 5.095611 -51.156178 6.213969 9.656158 6.791015 -52.104484 9.752286 1.418320 -14.814320 -19.732107 23.630578 -0.216465 3.878958 52.611434 -4.985582 12.424626 -15.354990 46.293884 0.860337 5.354721 8.515517 -9.106483 
-0.111967 -1.978853 0.964364 171.762137 -1.391702 86.027070 3.592332 -3.644007 -9.063750 -5.174374 -10.041072 13.902613 -1.986734 4.312626 -12.407379 0.000000 -0.000000 0.000000 0.822435 0.066707 6.221888 -1.494099 6.568443 15.136656 -1.312607 -4.854502 -27.690430 0.000000 -0.000000 0.000000 0.481658 2.653570 17.705875 0.818404 -2.095042 3.128167 0.789830 -2.177295 0.922661 -4.914050 5.214010 -14.402688 -2.730482 -0.314171 -4.044847 -27.116743 5.899056 4.990372 -51.154128 6.175111 9.631077 7.096553 -52.452547 9.233107 1.810549 -14.792782 -19.863273 23.773639 -0.224458 3.839462 52.611107 -4.801349 12.529896 -15.525450 46.677849 0.392015 4.897123 8.605705 -9.345198 
